<svg xmlns="http://www.w3.org/2000/svg" width="1em" height="1em" viewBox="0 0 512 512"><path fill="#fff" d="M189.35 120.484v58.865L64.59 236.453L189.35 295.6v57.685L0 263.456v-52.543l189.35-90.43zm128.845 53.29c0-15.04-13.83-24.491-24.833-16.971c-11.003 7.52-11.003 26.422 0 33.943c11.004 7.52 24.833-1.932 24.833-16.972zm-45.12 46.211c-37.312-20.454-37.312-71.868 0-92.323c37.313-20.454 84.207 5.253 84.207 46.162s-46.894 66.616-84.206 46.161zm199.838 119.927c0-15.04-13.83-24.491-24.833-16.971c-11.003 7.52-11.003 26.422 0 33.942c11.004 7.52 24.833-1.93 24.833-16.97zm-45.12 46.211c-37.312-20.454-37.312-71.868 0-92.323S512 299.053 512 339.962s-46.894 66.616-84.206 46.161zm-114.654 7.179l194.41-274.604H441.12L243.47 393.302h69.668z"/></svg>